<svg id="Wake" xmlns="http://www.w3.org/2000/svg" viewBox="0 0 46.05 63"><defs><style>.cls-1{fill:#009688;}.cls-2{fill:#4db6ac;}.cls-3{fill:none;stroke:#fff;stroke-miterlimit:10;}.cls-4{fill:#007f8e;}.cls-5{fill:#00acc1;}</style></defs><title>icon-marker-kite</title><path class="cls-1" d="M46.2,20.25A23,23,0,1,0,4.06,35.61Q4.52,36.3,5,37L23.35,63,41.68,37q0.5-.66,1-1.35A22.91,22.91,0,0,0,46.37,23,23.22,23.22,0,0,0,46.2,20.25Z" transform="translate(-0.32)"/><circle class="cls-2" cx="23.03" cy="22.78" r="20.42"/><g id="wake_icon" data-name="wake icon"><path class="cls-3" d="M17.21,18.3c-2.23.74-4.44,1.48-6.65,2.2a1.18,1.18,0,0,1-1.62-1.21,1.08,1.08,0,0,1,.74-1.09c2.89-1.16,5.77-2.35,8.67-3.47a4.19,4.19,0,0,1,3.83.18c0.87,0.51,1.79.94,2.67,1.42a7.6,7.6,0,0,0,4.65,1c-0.17-.72-0.32-1.43-0.51-2.13a0.81,0.81,0,0,1,.31-1.11,0.7,0.7,0,0,1,1,.47,1.28,1.28,0,0,0,.52.4c1.14,0.67,2.32,1.29,3.43,2a3.1,3.1,0,0,0,2.09.71c0.61-.1,1.24-0.21,1.88-0.28l0,0.29a6.25,6.25,0,0,0-2.56.61,3.45,3.45,0,0,0-.74.36c-0.87.84-1.72,1.71-2.56,2.59a4.67,4.67,0,0,0-.32.61,1.8,1.8,0,0,1-.61.73,0.64,0.64,0,0,1-.81-0.6c-0.2-.75-0.38-1.51-0.56-2.23-2.42-.16-4.84.33-7.19-1.07,1.34,3.44,3.33,6.37,4.19,9.84l-2.73.31L22,24.41l-0.2.06c-0.3,1.57-1.19,3-.7,4.81l-2.68.46c-0.83-1.93-.43-3.81,0-5.69a1.53,1.53,0,0,1,.07-0.26C19.48,21.63,18.08,20,17.21,18.3ZM31.67,19l0.85-.93-1.23-.81Z" transform="translate(-0.32)"/><path class="cls-3" d="M32.34,29.66c0.7,0,1.4.05,2.09,0a1.83,1.83,0,0,1,1.75.78,9.38,9.38,0,0,1,1.13,1.89c0.34,0.8.14,1.11-.7,1.26-2.58.46-5.16,1-7.76,1.31-3.38.46-6.77,0.82-10.16,1.18-1.43.15-2.87,0.21-4.3,0.31a1.84,1.84,0,0,1-1.73-.7c-0.47-.65-0.9-1.33-1.33-2-0.34-.52-0.08-0.78.44-0.9,1.92-.45,3.83-1,5.76-1.34A97.67,97.67,0,0,1,32.34,29.66Z" transform="translate(-0.32)"/><path class="cls-3" d="M19,13.72A2.56,2.56,0,0,1,19,8.6,2.56,2.56,0,1,1,19,13.72Z" transform="translate(-0.32)"/></g><path class="cls-4" d="M46.2,20.25A23,23,0,1,0,4.06,35.61Q4.52,36.3,5,37L23.35,63,41.68,37q0.5-.66,1-1.35A22.91,22.91,0,0,0,46.37,23,23.22,23.22,0,0,0,46.2,20.25Z" transform="translate(-0.32)"/><circle class="cls-5" cx="23.03" cy="22.78" r="20.42"/><g id="kite_icon" data-name="kite icon"><path class="cls-3" d="M13,19.79c1,0,1.92,0,2.87,0,0.7,0,1.41,0,2.1-.07a8.78,8.78,0,0,0,3.71-.79c0.47-.27.93-0.55,1.44-0.86l-2.26-1.54-0.49.64a3.89,3.89,0,0,0-.46.67,1,1,0,0,1-1.09.57c-0.68,0-1.37,0-2.1,0l2-3.28c-0.47-.34-0.9-0.64-1.32-1a1,1,0,0,1-.16-1.37l2.56-4a1,1,0,0,1,1.3-.33,0.92,0.92,0,0,1,.48,1.2A11,11,0,0,1,20.85,11c-0.42.66-.85,1.3-1.27,2a1.13,1.13,0,0,0-.08.18,1.16,1.16,0,0,0,1.1.32,1,1,0,0,1,1.23,1.25l0.69,0.47L23.35,14c0.77-1.14,1.53-2.28,2.3-3.41a1,1,0,0,1,1.19-.29,1.06,1.06,0,0,1,.56.89,1.52,1.52,0,0,1-.29.84l-2.89,4.31c0.28,0.18.53,0.38,0.82,0.53a1,1,0,0,0,.47.08,0.82,0.82,0,0,1,1,.81,0.3,0.3,0,0,0,.11.18l1.1,0.74c0.15,0.1.21,0.06,0.31-.08,0.87-1.27,1.76-2.54,2.64-3.81,0.44-.63.86-1.27,1.32-1.88a1.09,1.09,0,0,1,1.43-.31,1,1,0,0,1,.2,1.53c-0.88,1.29-1.78,2.57-2.67,3.86-0.63.91-1.24,1.82-1.88,2.72a1.09,1.09,0,0,1-1.66.24c-0.63-.42-1.25-0.85-1.87-1.28a0.32,0.32,0,0,0-.46,0A10.64,10.64,0,0,1,20.41,22a22.93,22.93,0,0,1-2.59.41c-0.45.06-.91,0.07-1.4,0.11L16,26.26c0.93-.15,1.81-0.32,2.69-0.44a3.56,3.56,0,0,1,2.17.31,45.49,45.49,0,0,1,4.45,2.71l0.89,0.58c1-.48,2.09-1,3.17-1.44s2.46-.91,3.71-1.3a7.91,7.91,0,0,1,2.69-.4,6.82,6.82,0,0,1,1.34.2,1.63,1.63,0,0,1,1,2.21A4.27,4.27,0,0,1,37,30.27c-0.39.35-.75,0.74-1.15,1.07-0.89.73-1.81,1.41-2.69,2.15a1.84,1.84,0,0,1-1.22.4,20.4,20.4,0,0,0-4.31.57c-1.59.41-3.19,0.81-4.8,1.17-1,.23-2.05.42-3.09,0.55s-2,.17-3,0.2c-0.64,0-1.28-.07-1.92-0.1l0-.09,1.68-1.09c-0.68-.42-1.36-0.78-2-1.22a12.77,12.77,0,0,1-4.29-5A5.59,5.59,0,0,1,9.6,25.8c0.14-1.28.34-2.55,0.52-3.83a4.89,4.89,0,0,1,.16-0.82A1.75,1.75,0,0,1,11.67,20l0.52-.1a3.33,3.33,0,0,1-3.24-3.57,3.19,3.19,0,0,1,2.68-3,3.23,3.23,0,0,1,3.64,2A3.06,3.06,0,0,1,15.13,18C14.62,18.91,14.75,19,13,19.79ZM23.22,31a1.12,1.12,0,0,0-.15-0.16c-0.92-.67-1.81-1.36-2.76-2a1.5,1.5,0,0,0-1.42-.35c-0.38.14-.79,0.22-1.18,0.34a8.41,8.41,0,0,0-2.45,1.06,0.43,0.43,0,0,0-.16.61,3.18,3.18,0,0,0,.42.58,11.55,11.55,0,0,0,3.25,2.3,0.57,0.57,0,0,0,.47,0C20.56,32.61,21.87,31.82,23.22,31Z" transform="translate(-0.32)"/></g></svg>