<svg id="Wake" xmlns="http://www.w3.org/2000/svg" viewBox="0 0 46.05 63"><defs><style>.cls-1{fill:#009688;}.cls-2{fill:#4db6ac;}.cls-3{fill:none;stroke:#fff;stroke-miterlimit:10;}</style></defs><title>icon-marker-wake</title><path class="cls-1" d="M46.2,20.25A23,23,0,1,0,4.06,35.61Q4.52,36.3,5,37L23.35,63,41.68,37q0.5-.66,1-1.35A22.91,22.91,0,0,0,46.37,23,23.22,23.22,0,0,0,46.2,20.25Z" transform="translate(-0.32)"/><circle class="cls-2" cx="23.03" cy="22.78" r="20.42"/><g id="wake_icon" data-name="wake icon"><path class="cls-3" d="M17.21,18.3c-2.23.74-4.44,1.48-6.65,2.2a1.18,1.18,0,0,1-1.62-1.21,1.08,1.08,0,0,1,.74-1.09c2.89-1.16,5.77-2.35,8.67-3.47a4.19,4.19,0,0,1,3.83.18c0.87,0.51,1.79.94,2.67,1.42a7.6,7.6,0,0,0,4.65,1c-0.17-.72-0.32-1.43-0.51-2.13a0.81,0.81,0,0,1,.31-1.11,0.7,0.7,0,0,1,1,.47,1.28,1.28,0,0,0,.52.4c1.14,0.67,2.32,1.29,3.43,2a3.1,3.1,0,0,0,2.09.71c0.61-.1,1.24-0.21,1.88-0.28l0,0.29a6.25,6.25,0,0,0-2.56.61,3.45,3.45,0,0,0-.74.36c-0.87.84-1.72,1.71-2.56,2.59a4.67,4.67,0,0,0-.32.61,1.8,1.8,0,0,1-.61.73,0.64,0.64,0,0,1-.81-0.6c-0.2-.75-0.38-1.51-0.56-2.23-2.42-.16-4.84.33-7.19-1.07,1.34,3.44,3.33,6.37,4.19,9.84l-2.73.31L22,24.41l-0.2.06c-0.3,1.57-1.19,3-.7,4.81l-2.68.46c-0.83-1.93-.43-3.81,0-5.69a1.53,1.53,0,0,1,.07-0.26C19.48,21.63,18.08,20,17.21,18.3ZM31.67,19l0.85-.93-1.23-.81Z" transform="translate(-0.32)"/><path class="cls-3" d="M32.34,29.66c0.7,0,1.4.05,2.09,0a1.83,1.83,0,0,1,1.75.78,9.38,9.38,0,0,1,1.13,1.89c0.34,0.8.14,1.11-.7,1.26-2.58.46-5.16,1-7.76,1.31-3.38.46-6.77,0.82-10.16,1.18-1.43.15-2.87,0.21-4.3,0.31a1.84,1.84,0,0,1-1.73-.7c-0.47-.65-0.9-1.33-1.33-2-0.34-.52-0.08-0.78.44-0.9,1.92-.45,3.83-1,5.76-1.34A97.67,97.67,0,0,1,32.34,29.66Z" transform="translate(-0.32)"/><path class="cls-3" d="M19,13.72A2.56,2.56,0,0,1,19,8.6,2.56,2.56,0,1,1,19,13.72Z" transform="translate(-0.32)"/></g></svg>